<?xml version="1.0" encoding="utf-8"?><svg viewBox="0 0 1310.7759999999998 218.6" xmlns="http://www.w3.org/2000/svg">
	<rect id="small-box" style="fill:#ff8200;" width="218.6" height="218.6"></rect>
	<rect id="big-box" style="fill:#3d3935;" x="218.6" width="546.5" height="218.6"></rect>
	<path id="icon" style="fill:white;" d="M 124.6 112.1 C 118 118.7 114.8 121.8 113.2 129.8 C 113.1 130.4 112.4 130.4 112.4 129.8 L 112.4 120 C 112.4 113.7 118 108 124.6 101.4 L 129.9 96.1 C 137.4 88.6 139.2 79.9 133.2 74.8 C 132.7 74.4 133 73.8 133.6 74.1 C 141 77.5 146.9 89.8 134.2 102.5 L 124.6 112.1 Z M 112.4 137.2 L 112.4 147 C 112.4 147.6 113.1 147.6 113.2 147 C 114.8 139 118 135.8 124.6 129.3 L 135 118.9 C 147.7 106.2 149.9 93.9 143.5 86 C 143.1 85.5 142.6 85.8 142.9 86.4 C 147.2 96.1 136.9 106.3 132 111.2 L 124.6 118.6 C 118 125.2 112.4 130.9 112.4 137.2 M 84.2 105.6 C 71.5 118.3 77.3 130.6 84.7 134 C 85.4 134.3 85.6 133.8 85.1 133.3 C 79.1 128.1 81 119.5 88.4 112 L 109.5 90.8 C 116.1 84.2 121.7 78.4 121.7 72.2 L 121.7 62.4 C 121.7 61.8 121 61.8 120.9 62.4 C 119.3 70.4 116.1 73.5 109.5 80.1 L 84.2 105.6 Z M 121.9 55 L 121.9 45.2 C 121.9 44.6 121.2 44.6 121.1 45.2 C 119.5 53.2 116.3 56.4 109.7 62.9 L 83.5 89.1 C 70.8 101.8 68.6 114.1 75 122.1 C 75.4 122.6 75.9 122.3 75.6 121.7 C 71.3 112 81.6 101.8 86.5 96.9 L 109.7 73.7 C 116.3 67 121.9 61.3 121.9 55 M 80.7 74.7 C 69.8 85.6 68.2 97.2 70.6 104.8 C 70.8 105.4 71.4 105.5 71.3 104.8 C 71.2 98.5 73.1 93 84.7 81.4 L 109.7 56.4 C 116.3 49.8 121.9 44 121.9 37.8 L 121.9 28 C 121.9 27.4 121.2 27.4 121.1 28 C 119.5 36 116.3 39.1 109.7 45.7 L 80.7 74.7 Z M 96 154 C 95.8 154 95.6 153.8 95.6 153.6 L 95.6 147.9 C 95.6 147.7 95.8 147.5 96 147.5 L 105.6 147.5 C 105.8 147.5 106 147.3 106 147.1 C 106 142 102.1 138.6 86.8 141.2 L 53.6 146.9 C 53.6 146.9 28.3 172.2 28.1 172.4 C 27.8 172.8 28 173.3 28.6 173.3 C 29.1 173.3 83.8 163.8 83.8 163.8 C 96.4 161.7 103.2 167.7 105.3 173.3 C 105.5 173.8 106.1 173.7 106.1 173.2 L 106.1 154.3 C 106.1 154.1 105.9 153.9 105.7 153.9 L 96 154 L 96 154 Z M 135.6 141.9 L 124.6 152.9 C 118 159.5 112.4 165.3 112.4 171.5 L 112.4 173.2 C 112.4 173.7 113 173.7 113.2 173.3 C 115.3 167.7 122.1 161.7 134.7 163.8 C 134.7 163.8 189.5 173.3 189.9 173.3 C 190.4 173.3 190.7 172.8 190.4 172.4 C 190.2 172.2 164.9 146.9 164.9 146.9 L 135.6 141.9 Z M 147.9 103.2 C 147.7 102.6 147.1 102.5 147.2 103.2 C 147.3 109.5 145.4 115 133.8 126.6 L 124.6 135.8 C 120.4 140 116.7 143.8 114.5 147.6 L 123.5 147.6 C 123.9 147.2 124.2 146.9 124.6 146.5 L 137.7 133.3 C 148.7 122.3 150.2 110.7 147.9 103.2 M 112.4 164.1 C 112.4 164.7 113.1 164.7 113.2 164.1 C 114.1 159.7 115.5 156.8 117.6 153.9 L 112.8 153.9 C 112.6 153.9 112.4 154.1 112.4 154.3 L 112.4 164.1 Z M 183.8 152.7 L 182.3 152.7 L 182.3 152 L 186.2 152 L 186.2 152.7 L 184.7 152.7 L 184.7 156.9 L 183.8 156.9 L 183.8 152.7 Z M 186.7 152 L 187.9 152 L 189.4 155.9 L 190.8 152 L 192.1 152 L 192.1 156.9 L 191.2 156.9 L 191.2 154.1 L 191.2 153.1 L 191.1 153.1 L 189.7 156.9 L 189 156.9 L 187.6 153.1 L 187.5 153.1 L 187.5 154 L 187.5 156.9 L 186.7 156.9 L 186.7 152 Z"></path>
	<g id="seventh-day-adventist-church" transform="">
		<path id="text-line-1" style="fill:white;" d="M 354.2 82.2 C 354.2 75.3 349.9 72.4 342.2 69.5 C 335 66.8 332.6 65.1 332.6 60.6 C 332.6 56.8 335.4 54.2 340.9 54.2 C 344.7 54.2 348.3 55.3 351.4 56.5 L 353.2 51.8 C 349.9 50.3 345.9 49.3 341 49.3 C 332.7 49.3 326.9 53.6 326.9 60.5 C 326.9 67.4 330.7 70.9 338.3 73.6 C 346.3 76.5 348.7 78.4 348.7 82.7 C 348.7 87.1 345.3 89.8 338.8 89.8 C 334.1 89.8 330.1 88.8 328.2 87.9 L 326.5 92.5 C 329.3 93.9 333.7 94.6 338.6 94.6 C 348.1 94.6 354.2 90 354.2 82.2 M 373.9 60.3 C 365.1 60.3 359.3 66.8 359.3 77.7 C 359.3 88.7 365.8 94.6 375.2 94.6 C 379.7 94.6 382.7 93.9 386.1 92.4 L 384.6 88.3 C 382 89.3 378.7 89.9 375.5 89.9 C 368.9 89.9 365.1 85.9 364.9 78.4 L 387.6 78.4 L 387.6 75.1 C 387.5 66.2 382.3 60.3 373.9 60.3 M 373.8 64.7 C 379.3 64.7 381.8 68.5 381.8 74.1 L 365 74.1 C 365.5 68.3 368.6 64.7 373.8 64.7 M 400.1 94 L 406.3 94 L 418.9 60.9 L 413.1 60.9 L 406.1 80.4 C 405.2 83.1 403.8 87.1 403.3 89.2 L 403.1 89.2 C 402.7 87.2 401.4 83.2 400.4 80.4 L 393.4 60.9 L 387.6 60.9 L 400.1 94 Z M 435.1 60.3 C 426.3 60.3 420.5 66.8 420.5 77.7 C 420.5 88.7 427 94.6 436.4 94.6 C 440.9 94.6 443.9 93.9 447.3 92.4 L 445.8 88.3 C 443.2 89.3 439.9 89.9 436.7 89.9 C 430.1 89.9 426.3 85.9 426.1 78.4 L 448.8 78.4 L 448.8 75.1 C 448.7 66.2 443.6 60.3 435.1 60.3 M 435 64.7 C 440.5 64.7 443 68.5 443 74.1 L 426.1 74.1 C 426.8 68.3 429.9 64.7 435 64.7 M 471.2 60.3 C 467 60.3 462.9 62 460.8 65.4 L 460.5 65.4 L 459.7 60.9 L 455.3 60.9 L 455.3 94 L 460.7 94 L 460.7 76.8 C 460.7 69.1 463 64.8 470.4 64.8 C 475.5 64.8 477.8 67.5 477.8 72.8 L 477.8 94 L 483.2 94 L 483.2 72.4 C 483.2 63.9 479.1 60.3 471.2 60.3 M 501 90.2 C 498 90.2 495.8 88.3 495.8 84.3 L 495.8 65.1 L 505.4 65.1 L 505.4 60.9 L 495.8 60.9 L 495.8 53.3 L 490.4 55.3 L 490.4 84.3 C 490.4 92.3 494.9 94.5 500.1 94.5 C 502.6 94.5 505 93.9 506.2 93.1 L 504.7 89.2 C 503.9 89.7 502.3 90.2 501 90.2 M 515.8 47.1 L 510.4 49.1 L 510.4 94 L 515.8 94 L 515.8 76.9 C 515.8 69.2 518.1 64.9 525.5 64.9 C 530.6 64.9 532.9 67.6 532.9 72.9 L 532.9 94 L 538.3 94 L 538.3 72.4 C 538.3 63.9 534.2 60.3 526.2 60.3 C 521.9 60.3 518 62 515.9 65.4 L 515.5 65.4 C 515.7 64.1 515.8 62.4 515.8 60.8 L 515.8 47.1 L 515.8 47.1 Z M 544.8 79.9 L 559.7 79.9 L 557.9 75.1 L 543 75.1 L 544.8 79.9 Z M 577.1 94.6 C 582.3 94.6 585.4 92.4 587.4 89.5 L 587.6 89.5 L 588.4 93.9 L 592.8 93.9 L 592.8 47.1 L 587.4 49.2 L 587.4 60.3 C 587.4 61.5 587.6 64.1 587.8 65.2 L 587.4 65.2 C 585.4 62.5 582.3 60.3 577.2 60.3 C 569 60.3 563.6 66.2 563.6 77.5 C 563.5 88.9 568.9 94.6 577.1 94.6 M 577.9 90.1 C 572 90.1 569.1 85.5 569.1 77.6 C 569.1 69.8 572 64.8 577.9 64.8 C 585.2 64.8 587.5 69.4 587.5 77.6 L 587.5 78.6 C 587.4 86.3 584.9 90.1 577.9 90.1 M 614.6 60.4 C 610.3 60.4 606.2 61.7 603.3 63.2 L 605 67.3 C 607.7 66 610.9 64.8 614.3 64.8 C 618.6 64.8 621.2 66.6 621.2 72.1 L 621.2 74.1 L 615.6 74.3 C 604.8 74.6 599.7 78.3 599.7 84.9 C 599.7 91.6 604.1 94.7 610.1 94.7 C 615.7 94.7 618.3 93 621.2 89.4 L 621.4 89.4 L 622.4 94.1 L 626.4 94.1 L 626.4 71.5 C 626.4 63.7 622.6 60.4 614.6 60.4 M 621.1 77.8 L 621.1 80.8 C 621.1 87.2 616.9 90.2 611.3 90.2 C 607.7 90.2 605.3 88.5 605.3 84.8 C 605.3 80.6 608 78.3 616.2 77.9 L 621.1 77.8 Z M 629.7 60.9 L 643 94.1 L 641.3 98.5 C 639.9 102.1 638.9 103.3 636.4 104.4 L 638.1 108.8 C 642.5 107.1 644.6 104.8 646.9 98.6 L 661.2 60.9 L 655.3 60.9 L 648.6 79.7 C 647.4 83.1 646.3 86.7 645.8 88.8 L 645.6 88.8 C 645.1 86.1 644.1 83.1 642.8 79.8 L 635.6 61 L 629.7 60.9 L 629.7 60.9 L 629.7 60.9 Z"></path>
		<path id="text-line-2" style="fill:white;" d="M 291.1 158.3 L 296.8 158.3 L 279.6 114 L 274.6 114 L 257.4 158.3 L 263 158.3 L 268.2 144.7 L 285.7 144.7 L 291.1 158.3 Z M 284.1 139.8 L 270.1 139.8 L 275.1 126.5 C 275.6 125.1 276.4 122.4 277 119.9 C 277.4 121.4 278.7 125.5 279.1 126.5 L 284.1 139.8 Z M 312.7 159 C 317.9 159 321 156.8 323 153.9 L 323.2 153.9 L 324 158.3 L 328.4 158.3 L 328.4 111.4 L 323 113.5 L 323 124.6 C 323 125.8 323.2 128.4 323.4 129.5 L 323 129.5 C 321 126.8 317.9 124.6 312.8 124.6 C 304.6 124.6 299.2 130.5 299.2 141.8 C 299.1 153.2 304.5 159 312.7 159 M 313.5 154.4 C 307.6 154.4 304.7 149.8 304.7 141.9 C 304.7 134.1 307.6 129.1 313.5 129.1 C 320.8 129.1 323.1 133.7 323.1 141.9 L 323.1 142.9 C 323 150.6 320.5 154.4 313.5 154.4 M 344.9 158.3 L 351.1 158.3 L 363.7 125.2 L 358 125.2 L 351 144.7 C 350.1 147.4 348.7 151.4 348.2 153.5 L 348 153.5 C 347.6 151.5 346.3 147.4 345.3 144.7 L 338.3 125.2 L 332.5 125.2 L 344.9 158.3 Z M 379.9 124.6 C 371.1 124.6 365.3 131.1 365.3 142 C 365.3 153 371.8 158.9 381.2 158.9 C 385.7 158.9 388.7 158.2 392.1 156.7 L 390.6 152.6 C 388 153.6 384.7 154.2 381.5 154.2 C 374.9 154.2 371.1 150.2 370.9 142.7 L 393.6 142.7 L 393.6 139.4 C 393.6 130.6 388.4 124.6 379.9 124.6 M 379.9 129.1 C 385.4 129.1 387.9 132.9 387.9 138.5 L 371.1 138.5 C 371.6 132.6 374.7 129.1 379.9 129.1 M 416.1 124.6 C 411.9 124.6 407.8 126.3 405.7 129.7 L 405.4 129.7 L 404.6 125.2 L 400.2 125.2 L 400.2 158.3 L 405.6 158.3 L 405.6 141.1 C 405.6 133.4 407.9 129.1 415.3 129.1 C 420.4 129.1 422.7 131.8 422.7 137.1 L 422.7 158.3 L 428.1 158.3 L 428.1 136.8 C 428 128.3 424 124.6 416.1 124.6 M 445.9 154.5 C 442.9 154.5 440.7 152.6 440.7 148.6 L 440.7 129.5 L 450.3 129.5 L 450.3 125.3 L 440.7 125.3 L 440.7 117.7 L 435.3 119.7 L 435.3 148.7 C 435.3 156.7 439.8 158.9 445 158.9 C 447.5 158.9 449.9 158.3 451 157.5 L 449.5 153.6 C 448.8 154.1 447.1 154.5 445.9 154.5 M 458 112.8 C 456.2 112.8 454.8 113.9 454.8 116.3 C 454.8 118.6 456.2 119.8 458 119.8 C 459.7 119.8 461.1 118.7 461.1 116.3 C 461.2 113.9 459.7 112.8 458 112.8 M 460.7 125.3 L 455.3 125.3 L 455.3 158.4 L 460.7 158.4 L 460.7 125.3 Z M 490.9 149.2 C 490.9 143.9 487.3 141.7 481 139.4 C 474.6 137 472.5 135.9 472.5 133.1 C 472.5 130.6 474.9 129.1 479.4 129.1 C 482.6 129.1 485.8 130 488.7 131.3 L 490.4 126.9 C 487.3 125.5 483.9 124.7 479.8 124.7 C 472.4 124.7 467.4 127.9 467.4 133.5 C 467.4 138.9 471.2 140.9 477.6 143.4 C 484.1 145.9 485.7 147.4 485.7 149.8 C 485.7 152.8 483.4 154.7 477.9 154.7 C 474.8 154.7 471.2 153.7 469 152.8 L 467.4 157 C 469.9 158.4 473.1 159.1 477.8 159.1 C 485.7 159 490.9 155.6 490.9 149.2 M 506.3 154.5 C 503.3 154.5 501.1 152.6 501.1 148.6 L 501.1 129.5 L 510.7 129.5 L 510.7 125.3 L 501.1 125.3 L 501.1 117.7 L 495.7 119.7 L 495.7 148.7 C 495.7 156.7 500.2 158.9 505.4 158.9 C 507.9 158.9 510.3 158.3 511.5 157.5 L 510 153.6 C 509.2 154.1 507.5 154.5 506.3 154.5 M 549.5 118.5 C 553.5 118.5 556.8 119.7 559.5 120.9 L 561.4 116 C 558.1 114.3 554.1 113.6 549.6 113.6 C 536 113.6 528.4 122.9 528.4 136.2 C 528.4 150.1 535.1 158.9 548.6 158.9 C 554.2 158.9 557.4 158.3 562.4 156.1 L 560.8 151.8 C 558 153.2 553.3 154 549.4 154 C 539.3 154 534.2 147.1 534.2 136.2 C 534.3 125.3 540.1 118.5 549.5 118.5 M 572.5 111.4 L 567.1 113.4 L 567.1 158.3 L 572.5 158.3 L 572.5 141.2 C 572.5 133.5 574.8 129.2 582.2 129.2 C 587.3 129.2 589.6 131.9 589.6 137.2 L 589.6 158.4 L 595 158.4 L 595 136.9 C 595 128.4 590.9 124.8 582.9 124.8 C 578.6 124.8 574.7 126.5 572.6 129.9 L 572.2 129.9 C 572.4 128.6 572.5 126.9 572.5 125.3 L 572.5 111.4 L 572.5 111.4 Z M 631 125.3 L 625.6 125.3 L 625.6 142.5 C 625.6 150.2 623.2 154.5 615.8 154.5 C 610.8 154.5 608.5 151.9 608.5 146.6 L 608.5 125.3 L 603 125.3 L 603 147 C 603 155.4 607.1 159 615 159 C 619.3 159 623.3 157.5 625.5 154 L 625.7 154 L 626.5 158.4 L 630.9 158.4 L 631 125.3 L 631 125.3 Z M 655.1 124.6 C 650.5 124.6 647.1 127.6 645 131.3 L 644.8 131.3 L 644.2 125.3 L 639.8 125.3 L 639.8 158.4 L 645.2 158.4 L 645.2 140.7 C 645.2 134 649.7 129.6 654.8 129.6 C 655.9 129.6 657.3 129.8 658.4 130 L 659.1 125 C 657.8 124.8 656.3 124.6 655.1 124.6 M 675.3 159 C 679.1 159 682.4 158.2 684.2 157 L 682.5 152.7 C 680.3 153.7 677.9 154.3 675.2 154.3 C 669 154.3 665.8 149.9 665.8 142 C 665.8 133.7 668.9 129.5 675.6 129.5 C 677.9 129.5 680.8 130.3 682.8 131 L 684.5 126.5 C 682.5 125.5 679.1 124.7 675.7 124.7 C 666.8 124.7 660.2 129.8 660.2 142 C 660.2 153.7 666.5 159 675.3 159 M 695.2 111.4 L 689.8 113.4 L 689.8 158.3 L 695.2 158.3 L 695.2 141.2 C 695.2 133.5 697.5 129.2 704.9 129.2 C 710 129.2 712.3 131.9 712.3 137.2 L 712.3 158.4 L 717.7 158.4 L 717.7 136.9 C 717.7 128.4 713.6 124.8 705.6 124.8 C 701.3 124.8 697.4 126.5 695.3 129.9 L 694.9 129.9 C 695.1 128.6 695.2 126.9 695.2 125.3 L 695.2 111.4 L 695.2 111.4 Z"></path>
		<path id="text-tm" style="fill:white;" d="M 720.1 113.7 L 718.4 113.7 L 718.4 112.9 L 722.9 112.9 L 722.9 113.7 L 721.2 113.7 L 721.2 118.5 L 720.1 118.5 Z M 723.5 112.9 L 725 112.9 L 726.7 117.3 L 728.3 112.9 L 729.8 112.9 L 729.8 118.5 L 728.8 118.5 L 728.8 115.3 L 728.8 114.2 L 728.7 114.2 L 727.1 118.5 L 726.2 118.5 L 724.6 114.2 L 724.5 114.2 L 724.5 115.2 L 724.5 118.5 L 723.5 118.5 Z"></path>
	</g>
	<path id="entity-name" style="fill:#3d3935;" transform="translate(830,25) scale(2.3,2.3)" d="M-16.92 27.00C-14.40 21.74-5.62 17.71 0.22 17.71C3.24 17.71 5.90 19.01 6.48 23.11C7.42 30.02 0.36 42.70 0.36 52.85C0.36 53.42 0.72 53.71 1.15 53.71C1.44 53.71 1.73 53.57 1.94 53.28C9.86 42.70 17.86 32.69 25.42 21.82C24.26 32.33 22.46 42.41 22.68 52.99C22.68 53.57 23.04 53.86 23.47 53.86C23.76 53.86 24.05 53.71 24.26 53.42C31.75 43.42 39.38 33.48 47.16 23.76C48.02 22.68 48.96 21.60 49.82 20.45C50.26 20.02 50.54 19.58 50.98 19.15L51.12 19.01C51.34 19.22 51.55 19.37 51.84 19.37C52.13 19.37 52.34 19.22 52.49 18.94C52.85 18.14 53.06 17.64 52.70 16.78C52.56 16.49 52.27 16.27 51.98 16.27C51.91 16.27 51.84 16.34 51.77 16.34C49.68 16.34 48.67 19.22 47.38 20.81C39.60 30.31 31.90 40.10 24.48 49.90C24.55 39.02 26.42 28.87 27.43 18.07C27.50 17.57 27.07 17.28 26.64 17.28C26.35 17.28 25.99 17.42 25.85 17.64C18.43 28.80 10.30 39.46 2.23 50.04C3.74 43.49 5.76 37.30 7.27 31.10C8.28 27.07 9.50 20.45 5.83 17.35C4.54 16.27 2.81 15.91 1.01 15.91C-1.94 15.91-5.26 16.92-7.56 17.64C-11.95 19.01-17.28 21.53-19.15 26.28C-19.51 27.14-18.86 27.86-18.14 27.86C-17.71 27.86-17.21 27.65-16.92 27.00ZM41.47 41.47C41.83 43.27 42.91 44.86 44.28 44.86C44.93 44.86 46.08 44.71 47.09 44.14C48.17 43.56 50.76 40.90 51.62 39.82C52.06 39.96 53.14 40.10 53.86 40.10C56.30 40.10 58.03 39.82 59.69 37.94C60.19 37.44 59.98 36.65 59.40 36.65C59.33 36.65 59.18 36.65 59.04 36.72C56.59 38.52 55.51 38.59 52.70 38.59C54.94 36.14 55.22 35.06 55.37 33.34C55.44 32.11 54.79 31.10 53.50 31.10C53.21 31.10 52.92 31.18 52.63 31.25C50.33 31.82 49.32 34.34 49.46 36.22C49.54 37.30 50.04 38.38 50.40 38.88C49.46 39.96 47.38 42.26 46.58 42.70C46.01 42.98 45.50 43.13 45.07 43.13C43.92 43.13 43.06 42.34 42.91 41.47C42.70 40.10 43.20 38.09 44.14 36.72C45.29 35.06 46.37 34.85 47.45 34.42C47.88 34.27 47.59 33.12 46.37 33.12C46.08 33.12 45.79 33.19 45.36 33.34C43.06 34.63 40.97 38.81 41.47 41.47ZM50.83 36.43C50.69 34.56 51.55 33.55 52.56 32.90C52.78 32.76 52.99 32.69 53.14 32.69C53.50 32.69 53.71 32.98 53.64 33.55C53.42 35.21 52.34 36.72 51.19 37.87C51.05 37.66 50.83 36.86 50.83 36.43ZM72.65 38.16C73.44 37.22 73.30 36.58 72.79 36.58C72.50 36.58 72.14 36.72 71.78 37.08C70.13 39.10 64.87 42.26 62.21 42.26C60.91 42.26 60.41 41.54 60.41 40.18C60.41 39.53 60.55 38.81 60.70 37.94C61.85 36.94 64.30 34.49 67.39 30.60C71.64 25.27 74.59 21.17 74.81 17.06C74.95 14.69 74.30 13.10 73.01 13.10C72.14 13.10 70.99 13.82 69.55 15.41C64.80 20.59 58.90 32.69 58.90 39.96C58.90 42.12 59.54 43.99 61.70 43.99C64.80 43.99 70.70 40.54 72.65 38.16ZM61.06 35.57C62.57 29.45 66.74 21.38 70.42 16.85C71.35 15.62 72.14 15.05 72.72 15.05C73.30 15.05 73.51 15.77 73.30 17.06C72.36 22.82 65.16 31.18 61.06 35.57ZM85.32 38.16C86.11 37.22 85.97 36.58 85.46 36.58C85.18 36.58 84.82 36.72 84.46 37.08C82.80 39.10 77.54 42.26 74.88 42.26C73.58 42.26 73.08 41.54 73.08 40.18C73.08 39.53 73.22 38.81 73.37 37.94C74.52 36.94 76.97 34.49 80.06 30.60C84.31 25.27 87.26 21.17 87.48 17.06C87.62 14.69 86.98 13.10 85.68 13.10C84.82 13.10 83.66 13.82 82.22 15.41C77.47 20.59 71.57 32.69 71.57 39.96C71.57 42.12 72.22 43.99 74.38 43.99C77.47 43.99 83.38 40.54 85.32 38.16ZM73.73 35.57C75.24 29.45 79.42 21.38 83.09 16.85C84.02 15.62 84.82 15.05 85.39 15.05C85.97 15.05 86.18 15.77 85.97 17.06C85.03 22.82 77.83 31.18 73.73 35.57ZM83.95 41.47C84.31 43.27 85.39 44.86 86.76 44.86C87.41 44.86 88.56 44.71 89.57 44.14C90.65 43.56 93.24 40.90 94.10 39.82C94.54 39.96 95.62 40.10 96.34 40.10C98.78 40.10 100.51 39.82 102.17 37.94C102.67 37.44 102.46 36.65 101.88 36.65C101.81 36.65 101.66 36.65 101.52 36.72C99.07 38.52 97.99 38.59 95.18 38.59C97.42 36.14 97.70 35.06 97.85 33.34C97.92 32.11 97.27 31.10 95.98 31.10C95.69 31.10 95.40 31.18 95.11 31.25C92.81 31.82 91.80 34.34 91.94 36.22C92.02 37.30 92.52 38.38 92.88 38.88C91.94 39.96 89.86 42.26 89.06 42.70C88.49 42.98 87.98 43.13 87.55 43.13C86.40 43.13 85.54 42.34 85.39 41.47C85.18 40.10 85.68 38.09 86.62 36.72C87.77 35.06 88.85 34.85 89.93 34.42C90.36 34.27 90.07 33.12 88.85 33.12C88.56 33.12 88.27 33.19 87.84 33.34C85.54 34.63 83.45 38.81 83.95 41.47ZM93.31 36.43C93.17 34.56 94.03 33.55 95.04 32.90C95.26 32.76 95.47 32.69 95.62 32.69C95.98 32.69 96.19 32.98 96.12 33.55C95.90 35.21 94.82 36.72 93.67 37.87C93.53 37.66 93.31 36.86 93.31 36.43ZM101.38 43.49C105.12 38.52 111.53 33.84 111.53 33.84C111.53 33.84 110.45 41.18 114.70 42.19C115.06 42.26 115.34 42.34 115.70 42.34C118.44 42.34 121.25 39.74 122.76 38.09C123.34 37.44 123.41 36.72 122.98 36.72C122.76 36.72 122.33 36.94 121.68 37.58C120.38 38.88 117.86 40.75 115.92 40.75C113.54 40.75 113.04 38.16 113.04 36.22C113.04 34.92 113.26 33.62 113.54 32.98C113.83 32.26 113.33 31.61 112.46 31.61C112.10 31.61 111.67 31.75 111.24 32.04C108.22 34.06 101.16 41.04 101.16 41.04C101.16 41.04 104.33 35.35 104.98 34.63C105.48 34.06 104.76 33.70 104.11 33.70C103.82 33.70 103.61 33.77 103.46 33.91C102.60 34.78 99.58 40.46 99.00 42.34C98.57 43.20 99.50 43.92 100.37 43.92C100.80 43.92 101.16 43.78 101.38 43.49ZM118.30 62.42C119.52 62.21 127.08 58.32 130.82 49.03C131.62 47.09 132.12 45.50 132.55 44.06C136.94 41.33 139.82 39.74 141.48 38.09C142.63 36.94 142.34 36.58 141.84 36.58C141.41 36.58 140.83 36.79 140.47 37.08C139.82 37.87 137.30 39.38 133.13 41.90C134.14 38.38 133.78 36.50 134.35 35.64C135.00 34.63 134.14 33.77 133.49 33.77C133.34 33.77 133.20 33.84 133.13 33.98C132.26 34.78 127.80 39.53 125.14 40.90C123.48 41.76 121.82 42.48 120.96 42.48C120.31 42.48 120.10 42.05 120.60 40.90C121.68 38.38 126.65 34.78 130.39 34.78C131.76 34.63 131.18 31.97 129.31 31.97C126.07 31.97 120.17 37.73 119.16 40.68C118.58 42.48 119.16 43.92 121.03 43.92C124.63 43.92 129.96 39.60 132.26 37.01C132.26 37.01 132.12 39.74 131.26 43.06C126.07 46.37 116.86 53.21 115.63 59.54C115.20 61.85 116.35 62.57 117.43 62.57C117.72 62.57 118.01 62.50 118.30 62.42ZM117.29 61.13C116.28 60.12 118.73 54.65 123.55 50.69C125.21 49.25 128.02 46.87 130.68 45.22C130.25 47.09 129.17 49.32 128.52 50.69C126.07 55.87 119.52 61.20 117.58 61.20C117.50 61.20 117.36 61.20 117.29 61.13ZM139.97 41.47C140.33 43.27 141.41 44.86 142.78 44.86C143.42 44.86 144.58 44.71 145.58 44.14C146.66 43.56 149.26 40.90 150.12 39.82C150.55 39.96 151.63 40.10 152.35 40.10C154.80 40.10 156.53 39.82 158.18 37.94C158.69 37.44 158.47 36.65 157.90 36.65C157.82 36.65 157.68 36.65 157.54 36.72C155.09 38.52 154.01 38.59 151.20 38.59C153.43 36.14 153.72 35.06 153.86 33.34C153.94 32.11 153.29 31.10 151.99 31.10C151.70 31.10 151.42 31.18 151.13 31.25C148.82 31.82 147.82 34.34 147.96 36.22C148.03 37.30 148.54 38.38 148.90 38.88C147.96 39.96 145.87 42.26 145.08 42.70C144.50 42.98 144 43.13 143.57 43.13C142.42 43.13 141.55 42.34 141.41 41.47C141.19 40.10 141.70 38.09 142.63 36.72C143.78 35.06 144.86 34.85 145.94 34.42C146.38 34.27 146.09 33.12 144.86 33.12C144.58 33.12 144.29 33.19 143.86 33.34C141.55 34.63 139.46 38.81 139.97 41.47ZM149.33 36.43C149.18 34.56 150.05 33.55 151.06 32.90C151.27 32.76 151.49 32.69 151.63 32.69C151.99 32.69 152.21 32.98 152.14 33.55C151.92 35.21 150.84 36.72 149.69 37.87C149.54 37.66 149.33 36.86 149.33 36.43ZM157.39 43.49C161.14 38.52 167.54 33.84 167.54 33.84C167.54 33.84 166.46 41.18 170.71 42.19C171.07 42.26 171.36 42.34 171.72 42.34C174.46 42.34 177.26 39.74 178.78 38.09C179.35 37.44 179.42 36.72 178.99 36.72C178.78 36.72 178.34 36.94 177.70 37.58C176.40 38.88 173.88 40.75 171.94 40.75C169.56 40.75 169.06 38.16 169.06 36.22C169.06 34.92 169.27 33.62 169.56 32.98C169.85 32.26 169.34 31.61 168.48 31.61C168.12 31.61 167.69 31.75 167.26 32.04C164.23 34.06 157.18 41.04 157.18 41.04C157.18 41.04 160.34 35.35 160.99 34.63C161.50 34.06 160.78 33.70 160.13 33.70C159.84 33.70 159.62 33.77 159.48 33.91C158.62 34.78 155.59 40.46 155.02 42.34C154.58 43.20 155.52 43.92 156.38 43.92C156.82 43.92 157.18 43.78 157.39 43.49ZM174.31 62.42C175.54 62.21 183.10 58.32 186.84 49.03C187.63 47.09 188.14 45.50 188.57 44.06C192.96 41.33 195.84 39.74 197.50 38.09C198.65 36.94 198.36 36.58 197.86 36.58C197.42 36.58 196.85 36.79 196.49 37.08C195.84 37.87 193.32 39.38 189.14 41.90C190.15 38.38 189.79 36.50 190.37 35.64C191.02 34.63 190.15 33.77 189.50 33.77C189.36 33.77 189.22 33.84 189.14 33.98C188.28 34.78 183.82 39.53 181.15 40.90C179.50 41.76 177.84 42.48 176.98 42.48C176.33 42.48 176.11 42.05 176.62 40.90C177.70 38.38 182.66 34.78 186.41 34.78C187.78 34.63 187.20 31.97 185.33 31.97C182.09 31.97 176.18 37.73 175.18 40.68C174.60 42.48 175.18 43.92 177.05 43.92C180.65 43.92 185.98 39.60 188.28 37.01C188.28 37.01 188.14 39.74 187.27 43.06C182.09 46.37 172.87 53.21 171.65 59.54C171.22 61.85 172.37 62.57 173.45 62.57C173.74 62.57 174.02 62.50 174.31 62.42ZM173.30 61.13C172.30 60.12 174.74 54.65 179.57 50.69C181.22 49.25 184.03 46.87 186.70 45.22C186.26 47.09 185.18 49.32 184.54 50.69C182.09 55.87 175.54 61.20 173.59 61.20C173.52 61.20 173.38 61.20 173.30 61.13Z"></path>
</svg>